<?xml version="1.0" standalone="no"?>
<!DOCTYPE svg PUBLIC "-//W3C//DTD SVG 20010904//EN"
 "http://www.w3.org/TR/2001/REC-SVG-20010904/DTD/svg10.dtd">
<svg version="1.0" xmlns="http://www.w3.org/2000/svg"
 width="750.000000pt" height="750.000000pt" viewBox="0 0 750.000000 750.000000"
 preserveAspectRatio="xMidYMid meet">
<metadata>
Created by potrace 1.14, written by Peter Selinger 2001-2017
</metadata>
<g transform="translate(0.000000,750.000000) scale(0.100000,-0.100000)"
fill="#000000" stroke="none">
<path d="M4403 6190 l-23 -9 0 -333 c0 -183 4 -338 8 -344 12 -19 50 -34 84
-34 24 0 42 8 61 28 l27 28 0 305 0 305 -29 28 c-32 30 -91 42 -128 26z"/>
<path d="M2865 5561 c-43 -18 -85 -68 -85 -102 0 -30 23 -56 227 -261 202
-203 231 -228 259 -228 20 0 44 10 63 26 26 21 31 33 31 67 0 41 -4 46 -229
272 -125 126 -232 230 -237 231 -5 2 -18 -1 -29 -5z"/>
<path d="M5798 5333 c-267 -266 -266 -264 -201 -327 67 -65 66 -65 324 195
157 159 229 237 229 252 0 29 -36 87 -54 87 -7 0 -19 7 -26 15 -7 8 -17 15
-23 15 -6 0 -118 -107 -249 -237z"/>
<path d="M4387 4989 c-114 -12 -255 -37 -312 -56 -131 -42 -334 -178 -422
-283 -63 -74 -66 -68 80 -145 l103 -54 62 59 c61 58 176 134 242 160 19 7 40
17 45 20 6 4 42 16 80 26 53 13 108 18 225 18 152 0 156 0 235 -33 140 -57
303 -161 381 -243 86 -91 165 -220 195 -318 20 -66 23 -97 24 -255 0 -99 -3
-196 -8 -216 -7 -36 -6 -37 45 -72 29 -19 70 -49 92 -66 42 -34 69 -30 79 11
3 13 14 58 26 101 14 53 23 126 27 220 5 122 3 155 -15 233 -28 125 -149 364
-240 474 -21 25 -51 65 -68 90 -57 83 -182 178 -288 219 -33 12 -72 29 -87 37
-14 8 -34 11 -44 7 -11 -4 -15 -2 -11 4 10 16 -271 75 -343 71 -14 0 -60 -4
-103 -9z"/>
<path d="M2735 4436 c-71 -18 -161 -46 -200 -61 -73 -29 -252 -127 -283 -154
-9 -9 -33 -28 -52 -42 -119 -89 -264 -274 -350 -447 -42 -84 -88 -222 -116
-347 -21 -94 -23 -97 -89 -140 -99 -64 -281 -278 -346 -407 -61 -121 -78 -324
-41 -478 27 -112 82 -239 130 -304 22 -28 72 -78 111 -111 84 -68 372 -225
414 -225 16 0 36 -4 46 -10 12 -6 534 -10 1417 -10 1363 -1 1401 0 1480 19 97
24 176 53 307 115 84 39 110 58 186 133 87 87 176 210 232 323 132 268 117
615 -39 847 -21 32 -50 79 -65 104 -52 91 -187 230 -293 300 -119 80 -122 81
-203 108 -162 53 -470 68 -565 27 -22 -9 -45 -15 -52 -12 -6 2 -28 35 -49 73
-75 135 -267 348 -430 477 -207 164 -474 244 -840 252 -178 4 -182 4 -310 -30z
m605 -216 c119 -32 244 -88 347 -156 105 -70 275 -238 319 -314 17 -30 54 -94
82 -141 61 -105 78 -153 87 -247 4 -40 9 -72 12 -72 2 0 30 11 61 24 103 43
301 96 386 102 59 5 105 2 164 -10 145 -29 233 -80 360 -205 62 -61 89 -98
138 -191 74 -138 88 -192 87 -330 -1 -242 -113 -459 -293 -571 -45 -28 -227
-99 -297 -115 -60 -14 -212 -16 -1293 -17 l-1225 -1 1140 -6 1140 -5 -1275 -5
c-1210 -5 -1279 -4 -1345 13 -184 48 -333 198 -391 393 -23 78 -24 218 -1 304
51 191 199 351 350 376 20 4 38 10 38 15 1 5 2 21 3 37 2 31 57 263 88 367 26
91 94 235 148 316 57 85 198 223 285 280 139 91 273 147 418 175 112 21 359
12 467 -16z"/>
<path d="M6080 3931 c-12 -22 -13 -101 -2 -117 20 -31 55 -34 360 -34 342 0
328 -3 353 68 8 25 7 38 -6 66 l-17 36 -339 0 c-324 0 -339 -1 -349 -19z"/>
</g>
</svg>
